<svg width="27" height="26" viewBox="0 0 27 26" fill="none" xmlns="http://www.w3.org/2000/svg">
<path d="M13.9008 2.32916L23.6508 6.22913C24.03 6.3808 24.3333 6.83579 24.3333 7.23663V10.8333C24.3333 11.4291 23.8458 11.9166 23.25 11.9166H3.74996C3.15413 11.9166 2.66663 11.4291 2.66663 10.8333V7.23663C2.66663 6.83579 2.96996 6.3808 3.34913 6.22913L13.0991 2.32916C13.3158 2.24249 13.6841 2.24249 13.9008 2.32916Z" stroke="white" stroke-width="2" stroke-miterlimit="10" stroke-linecap="round" stroke-linejoin="round"/>
<path d="M24.3333 23.8333H2.66663V20.5833C2.66663 19.9875 3.15413 19.5 3.74996 19.5H23.25C23.8458 19.5 24.3333 19.9875 24.3333 20.5833V23.8333Z" stroke="white" stroke-width="2" stroke-miterlimit="10" stroke-linecap="round" stroke-linejoin="round"/>
<path d="M4.83337 19.5V11.9166" stroke="white" stroke-width="2" stroke-miterlimit="10" stroke-linecap="round" stroke-linejoin="round"/>
<path d="M9.16663 19.5V11.9166" stroke="white" stroke-width="2" stroke-miterlimit="10" stroke-linecap="round" stroke-linejoin="round"/>
<path d="M13.5 19.5V11.9166" stroke="white" stroke-width="2" stroke-miterlimit="10" stroke-linecap="round" stroke-linejoin="round"/>
<path d="M17.8334 19.5V11.9166" stroke="white" stroke-width="2" stroke-miterlimit="10" stroke-linecap="round" stroke-linejoin="round"/>
<path d="M22.1666 19.5V11.9166" stroke="white" stroke-width="2" stroke-miterlimit="10" stroke-linecap="round" stroke-linejoin="round"/>
<path d="M1.58337 23.8334H25.4167" stroke="white" stroke-width="2" stroke-miterlimit="10" stroke-linecap="round" stroke-linejoin="round"/>
<path d="M13.5 9.20837C14.3975 9.20837 15.125 8.48084 15.125 7.58337C15.125 6.68591 14.3975 5.95837 13.5 5.95837C12.6025 5.95837 11.875 6.68591 11.875 7.58337C11.875 8.48084 12.6025 9.20837 13.5 9.20837Z" stroke="white" stroke-width="2" stroke-miterlimit="10" stroke-linecap="round" stroke-linejoin="round"/>
</svg>
