<svg width="17" height="16" viewBox="0 0 17 16" fill="none" xmlns="http://www.w3.org/2000/svg">
<path d="M6.28125 9.55325C6.28125 10.4132 6.94125 11.1066 7.76125 11.1066H9.43458C10.1479 11.1066 10.7279 10.4999 10.7279 9.75325C10.7279 8.93992 10.3746 8.65325 9.84792 8.46658L7.16125 7.53325C6.63458 7.34658 6.28125 7.05992 6.28125 6.24658C6.28125 5.49992 6.86125 4.89325 7.57458 4.89325H9.24792C10.0679 4.89325 10.7279 5.58658 10.7279 6.44658" stroke="#9F9FB5" stroke-width="1.5" stroke-linecap="round" stroke-linejoin="round"/>
<path d="M8.5 4V12" stroke="#9F9FB5" stroke-width="1.5" stroke-linecap="round" stroke-linejoin="round"/>
<path d="M8.5 14.6666C12.1819 14.6666 15.1667 11.6819 15.1667 7.99998C15.1667 4.31808 12.1819 1.33331 8.5 1.33331C4.8181 1.33331 1.83333 4.31808 1.83333 7.99998C1.83333 11.6819 4.8181 14.6666 8.5 14.6666Z" stroke="#9F9FB5" stroke-width="1.5" stroke-linecap="round" stroke-linejoin="round"/>
</svg>
