<svg width="26" height="26" viewBox="0 0 26 26" fill="none" xmlns="http://www.w3.org/2000/svg">
<path d="M13.5417 23.8334H4.41999C3.16332 23.8334 2.13416 22.8259 2.13416 21.5909V5.51426C2.13416 2.67593 4.24666 1.38676 6.83582 2.65426L11.6458 5.01593C12.6858 5.52509 13.5417 6.87926 13.5417 8.02759V23.8334Z" stroke="white" stroke-width="2" stroke-linecap="round" stroke-linejoin="round"/>
<path d="M23.8008 16.3151V20.4101C23.8008 22.7501 22.7175 23.8335 20.3775 23.8335H13.5416V11.2885L14.0508 11.3968L18.9258 12.491L21.125 12.9785C22.555 13.2926 23.725 14.0293 23.79 16.1093C23.8008 16.1743 23.8008 16.2393 23.8008 16.3151Z" stroke="white" stroke-width="2" stroke-linecap="round" stroke-linejoin="round"/>
<path d="M5.95825 9.75012H9.71742" stroke="white" stroke-width="2" stroke-linecap="round" stroke-linejoin="round"/>
<path d="M5.95825 14.0835H9.71742" stroke="white" stroke-width="2" stroke-linecap="round" stroke-linejoin="round"/>
<path d="M18.9258 12.4909V15.9792C18.9258 17.3226 17.8316 18.4167 16.4883 18.4167C15.1449 18.4167 14.0508 17.3226 14.0508 15.9792V11.3967L18.9258 12.4909Z" stroke="white" stroke-width="2" stroke-linecap="round" stroke-linejoin="round"/>
<path d="M23.7899 16.1093C23.7249 17.3876 22.6633 18.4168 21.3633 18.4168C20.0199 18.4168 18.9258 17.3226 18.9258 15.9793V12.491L21.1249 12.9785C22.5549 13.2926 23.7249 14.0293 23.7899 16.1093Z" stroke="white" stroke-width="2" stroke-linecap="round" stroke-linejoin="round"/>
</svg>
