<svg width="17" height="16" viewBox="0 0 17 16" fill="none" xmlns="http://www.w3.org/2000/svg">
<path d="M1.88 3.06667C2.41333 0.760003 5.88667 0.760003 6.41333 3.06667C6.72667 4.42 5.86667 5.56667 5.12 6.28C4.57333 6.8 3.71333 6.79334 3.16667 6.28C2.42667 5.56667 1.56667 4.42 1.88 3.06667Z" stroke="#9F9FB5" stroke-width="1.5"/>
<path d="M10.5467 11.0667C11.08 8.76 14.5733 8.76 15.1067 11.0667C15.42 12.42 14.56 13.5667 13.8067 14.28C13.26 14.8 12.3933 14.7933 11.8467 14.28C11.0933 13.5667 10.2333 12.42 10.5467 11.0667Z" stroke="#9F9FB5" stroke-width="1.5"/>
<path d="M8.5 3.33331H10.2867C11.52 3.33331 12.0933 4.85998 11.1667 5.67331L5.84 10.3333C4.91333 11.14 5.48667 12.6666 6.71333 12.6666H8.5" stroke="#9F9FB5" stroke-width="1.5" stroke-linecap="round" stroke-linejoin="round"/>
<path d="M4.15748 3.66665H4.16518" stroke="#9F9FB5" stroke-width="2" stroke-linecap="round" stroke-linejoin="round"/>
<path d="M12.8241 11.6666H12.8318" stroke="#9F9FB5" stroke-width="2" stroke-linecap="round" stroke-linejoin="round"/>
</svg>
