<svg width="25" height="24" viewBox="0 0 25 24" fill="none" xmlns="http://www.w3.org/2000/svg">
<path d="M12.875 15C14.5319 15 15.875 13.6569 15.875 12C15.875 10.3431 14.5319 9 12.875 9C11.2181 9 9.875 10.3431 9.875 12C9.875 13.6569 11.2181 15 12.875 15Z" stroke="#9F9FB5" stroke-width="2" stroke-miterlimit="10" stroke-linecap="round" stroke-linejoin="round"/>
<path d="M2.875 12.8801V11.1201C2.875 10.0801 3.725 9.22006 4.775 9.22006C6.585 9.22006 7.325 7.94006 6.415 6.37006C5.895 5.47006 6.205 4.30006 7.115 3.78006L8.845 2.79006C9.635 2.32006 10.655 2.60006 11.125 3.39006L11.235 3.58006C12.135 5.15006 13.615 5.15006 14.525 3.58006L14.635 3.39006C15.105 2.60006 16.125 2.32006 16.915 2.79006L18.645 3.78006C19.555 4.30006 19.865 5.47006 19.345 6.37006C18.435 7.94006 19.175 9.22006 20.985 9.22006C22.025 9.22006 22.885 10.0701 22.885 11.1201V12.8801C22.885 13.9201 22.035 14.7801 20.985 14.7801C19.175 14.7801 18.435 16.0601 19.345 17.6301C19.865 18.5401 19.555 19.7001 18.645 20.2201L16.915 21.2101C16.125 21.6801 15.105 21.4001 14.635 20.6101L14.525 20.4201C13.625 18.8501 12.145 18.8501 11.235 20.4201L11.125 20.6101C10.655 21.4001 9.635 21.6801 8.845 21.2101L7.115 20.2201C6.205 19.7001 5.895 18.5301 6.415 17.6301C7.325 16.0601 6.585 14.7801 4.775 14.7801C3.725 14.7801 2.875 13.9201 2.875 12.8801Z" stroke="#9F9FB5" stroke-width="2" stroke-miterlimit="10" stroke-linecap="round" stroke-linejoin="round"/>
</svg>
