<svg width="25" height="24" viewBox="0 0 25 24" fill="none" xmlns="http://www.w3.org/2000/svg">
<path d="M13.285 2.51814L13.255 2.58814L10.355 9.31814H7.50496C6.82496 9.31814 6.17496 9.45814 5.58496 9.70814L7.33496 5.52814L7.37496 5.42814L7.44496 5.26814C7.46496 5.20814 7.48496 5.14814 7.51496 5.09814C8.82496 2.06814 10.305 1.37814 13.285 2.51814Z" stroke="#9F9FB5" stroke-width="2" stroke-linecap="round" stroke-linejoin="round"/>
<path d="M18.675 9.51819C18.225 9.37819 17.745 9.31819 17.265 9.31819H10.355L13.255 2.58819L13.285 2.51819C13.435 2.56819 13.575 2.63819 13.725 2.69819L15.935 3.62819C17.165 4.13819 18.025 4.66819 18.545 5.30819C18.645 5.42819 18.725 5.53819 18.795 5.66819C18.885 5.80819 18.955 5.94819 18.995 6.09819C19.035 6.18819 19.065 6.27819 19.085 6.35819C19.355 7.19819 19.195 8.22819 18.675 9.51819Z" stroke="#9F9FB5" stroke-width="2" stroke-linecap="round" stroke-linejoin="round"/>
<path d="M22.1467 14.1984V16.1484C22.1467 16.3484 22.1367 16.5484 22.1267 16.7484C21.9367 20.2384 19.9867 21.9984 16.2867 21.9984H8.48672C8.24672 21.9984 8.00672 21.9784 7.77672 21.9484C4.59672 21.7384 2.89672 20.0384 2.68672 16.8584C2.65672 16.6284 2.63672 16.3884 2.63672 16.1484V14.1984C2.63672 12.1884 3.85672 10.4584 5.59672 9.70836C6.19672 9.45836 6.83672 9.31836 7.51672 9.31836H17.2767C17.7667 9.31836 18.2467 9.38836 18.6867 9.51836C20.6767 10.1284 22.1467 11.9884 22.1467 14.1984Z" stroke="#9F9FB5" stroke-width="2" stroke-linecap="round" stroke-linejoin="round"/>
<path d="M7.335 5.52808L5.585 9.70808C3.845 10.4581 2.625 12.1881 2.625 14.1981V11.2681C2.625 8.42808 4.645 6.05808 7.335 5.52808Z" stroke="#9F9FB5" stroke-width="2" stroke-linecap="round" stroke-linejoin="round"/>
<path d="M22.1436 11.2677V14.1977C22.1436 11.9977 20.6836 10.1277 18.6836 9.52766C19.2036 8.22766 19.3536 7.20766 19.1036 6.35766C19.0836 6.26766 19.0536 6.17766 19.0136 6.09766C20.8736 7.05766 22.1436 9.02766 22.1436 11.2677Z" stroke="#9F9FB5" stroke-width="2" stroke-linecap="round" stroke-linejoin="round"/>
</svg>
